# xmcd CD database file
#
# Track frame offsets:
#	150
#	18465
#	33920
#	63030
#	81985
#	96848
#	112185
#	129748
#	144635
#	158043
#
# Disc length: 2310 seconds
#
# Revision: 7
# Processed by: cddbd v1.4PL0 Copyright (c) Steve Scherf et al.
# Submitted via: CDex 1.50beta9
#
DISCID=8309040a
DTITLE=Chet Atkins and Mark Knopfler - Neck and Neck
DYEAR=1990
DGENRE=Country
TTITLE0=Poor Boy Blues
TTITLE1=Sweet Dreams
TTITLE2=There'll Be Some Changes Made
TTITLE3=Just One Time
TTITLE4=So Soft, Your Goodbye
TTITLE5=Yakety Axe
TTITLE6=Tears
TTITLE7=Tahitian Skies
TTITLE8=I'll See You in My Dreams
TTITLE9=The Next Time I'm in Town
EXTD=YEAR: 1990
EXTT0=
EXTT1=
EXTT2=
EXTT3=
EXTT4=
EXTT5=
EXTT6=
EXTT7=
EXTT8=
EXTT9=
PLAYORDER=
